<?xml version="1.0" encoding="UTF-8" standalone="no"?>
<svg
   viewBox="0 0 253.57954 145.17046"
   version="1.1"
   id="svg8"
   width="253.57954"
   height="145.17046"
   xmlns:xlink="http://www.w3.org/1999/xlink"
   xmlns="http://www.w3.org/2000/svg"
   xmlns:svg="http://www.w3.org/2000/svg">
  <defs
     id="defs8" />
  <!-- Background -->
  <rect
     width="300"
     height="200"
     rx="20"
     fill="#2b2d42"
     id="rect1"
     x="-35.284088"
     y="-24.829544"
     style="display:none" />
  <!-- Package name -->
  <!-- Video screens with different sizes -->
  <g
     transform="translate(24.71591,45.170456)"
     id="g7">
    <!-- Large screen -->
    <g
       id="g8">
      <rect
         x="-24.71591"
         y="-45.170456"
         width="253.57954"
         height="145.17046"
         rx="7.0438762"
         fill="#8d99ae"
         id="rect2"
         style="fill:#1e1e1e;fill-opacity:1;stroke-width:1.43008" />
      <rect
         x="-10.628157"
         y="-30.65341"
         width="225.40404"
         height="116.13636"
         rx="4.226326"
         fill="#ef233c"
         id="rect3"
         style="fill:#3a86ff;fill-opacity:1;stroke-width:1.43008" />
      <polygon
         points="70,90 70,40 120,65 "
         fill="#edf2f4"
         id="polygon3"
         style="display:inline"
         transform="translate(11.363636,-35.227273)" />
    </g>
    <!-- Medium screen (overlapping) -->
    <g
       id="g9"
       transform="matrix(1.0674458,0,0,1.187155,28.74942,-49.974128)">
      <rect
         x="60"
         y="40"
         width="110"
         height="70"
         rx="4"
         fill="#8d99ae"
         stroke="#2b2d42"
         stroke-width="2"
         id="rect4"
         style="fill:#1e1e1e;fill-opacity:1" />
      <rect
         x="67"
         y="47"
         width="96"
         height="56"
         rx="2"
         fill="#d90429"
         id="rect5"
         style="fill:#ff3a5e;fill-opacity:1" />
      <polygon
         points="100,90 100,60 130,75 "
         fill="#edf2f4"
         id="polygon5"
         transform="translate(3.125,-0.568181)" />
    </g>
    <!-- Small screen (phone) -->
    <g
       id="g10"
       transform="matrix(0.62616508,0,0,0.75326726,103.14399,-31.718772)">
      <rect
         x="105"
         y="65"
         width="50"
         height="70"
         rx="3"
         fill="#8d99ae"
         stroke="#2b2d42"
         stroke-width="2"
         id="rect6"
         style="fill:#1e1e1e;fill-opacity:1" />
      <rect
         x="110"
         y="70"
         width="40"
         height="60"
         rx="1"
         fill="#8d99ae"
         id="rect7"
         style="fill:#14f0bc;fill-opacity:1" />
      <polygon
         points="120,105 120,85 140,95 "
         fill="#edf2f4"
         id="polygon7"
         transform="translate(0,4.5257389)" />
    </g>
  </g>
  <!-- Breakpoint arrows -->
  <path
     d="M 20.96591,113.01137 H 85.7593 v 10 l 24.29752,-15 L 85.7593,93.011366 V 103.01137 H 20.96591 Z"
     fill="#edf2f4"
     opacity="0.8"
     id="path7"
     style="display:inline;stroke-width:1.27272" />
  <path
     d="m 164.71591,110.17046 h -40 v 10 l -15,-15 15,-15.000004 v 10.000004 h 40 z"
     fill="#edf2f4"
     opacity="0.8"
     id="path8"
     style="display:none" />
  <use
     x="0"
     y="0"
     xlink:href="#path7"
     id="use10"
     transform="matrix(0.65561225,0,0,0.6969697,114.32267,29.889808)" />
  <use
     x="0"
     y="0"
     xlink:href="#path7"
     id="use11"
     transform="matrix(0,0.26020409,-0.50757576,0,266.64214,11.135494)"
     style="display:none" />
  <use
     x="0"
     y="0"
     xlink:href="#path7"
     id="use12"
     transform="matrix(0,0.11033165,-0.23295455,0,237.69014,50.641342)"
     style="display:none" />
</svg>
