<svg xmlns="http://www.w3.org/2000/svg" width="300" height="220" fill="none" viewBox="0 0 300 220">
  <path fill="#0F0F0F" d="M290 0H10C4.477 0 0 4.477 0 10v200c0 5.523 4.477 10 10 10h280c5.523 0 10-4.477 10-10V10c0-5.523-4.477-10-10-10Z"/>
  <path fill="#FF3A5E" d="M20 27a7 7 0 1 0 0-14 7 7 0 0 0 0 14Z"/>
  <path fill="#FFD23F" d="M40 27a7 7 0 1 0 0-14 7 7 0 0 0 0 14Z"/>
  <path fill="#14F0BC" d="M60 27a7 7 0 1 0 0-14 7 7 0 0 0 0 14Z"/>
  <path stroke="#333" d="M20 50h260"/>
  <path fill="#14F0BC" d="M34.057 81.273V68.546h.815v12.727h-.815Zm2.744-8.91a1.56 1.56 0 0 0-.726-1.173c-.424-.278-.944-.417-1.56-.417-.452 0-.846.073-1.184.219a1.889 1.889 0 0 0-.786.601 1.442 1.442 0 0 0-.278.87c0 .272.065.506.194.701.133.192.302.353.507.482.205.126.421.23.646.314.226.08.433.144.622.193l1.034.279c.265.07.56.165.885.288.328.123.641.29.94.502.301.21.55.478.745.806.196.328.293.73.293 1.208a2.68 2.68 0 0 1-.432 1.491c-.285.444-.703.797-1.253 1.06-.547.261-1.211.392-1.993.392-.73 0-1.361-.118-1.895-.353-.53-.235-.948-.563-1.253-.984a2.808 2.808 0 0 1-.511-1.467h1.272c.033.385.163.703.388.954a2.1 2.1 0 0 0 .865.557c.351.12.73.18 1.134.18.47 0 .893-.077 1.267-.23.375-.155.672-.37.89-.646.219-.278.328-.603.328-.974 0-.338-.094-.613-.283-.825a2.08 2.08 0 0 0-.746-.517 7.823 7.823 0 0 0-1-.348l-1.252-.358c-.795-.23-1.425-.556-1.89-.98-.463-.424-.695-.98-.695-1.665 0-.57.154-1.067.462-1.492.312-.427.73-.759 1.253-.994a4.231 4.231 0 0 1 1.765-.358c.656 0 1.24.118 1.75.353.51.232.915.55 1.213.955.302.404.46.863.477 1.377h-1.193Zm8.311 3.043V80H43.94v-7.636h1.134v1.193h.1c.178-.388.45-.7.814-.935.365-.239.836-.358 1.412-.358.517 0 .97.106 1.358.318.387.21.689.527.904.955.216.424.324.961.324 1.61V80H48.81v-4.773c0-.6-.155-1.067-.467-1.402-.312-.338-.74-.507-1.283-.507-.374 0-.709.081-1.004.244-.292.162-.522.4-.691.71-.17.312-.254.69-.254 1.134Zm7.017 7.458v-10.5h1.133v1.213h.14c.085-.133.205-.302.357-.507.156-.21.378-.395.666-.557.292-.166.687-.249 1.184-.249.643 0 1.21.161 1.7.482.49.322.873.778 1.148 1.368.276.59.413 1.286.413 2.088 0 .808-.137 1.51-.413 2.103-.275.59-.656 1.047-1.143 1.372-.487.321-1.05.482-1.685.482-.491 0-.884-.081-1.179-.244a2.184 2.184 0 0 1-.68-.561 7.527 7.527 0 0 1-.369-.527h-.1v4.037H52.13Zm1.153-6.682c0 .576.085 1.085.254 1.526.169.438.416.78.74 1.03.325.245.723.367 1.193.367.491 0 .9-.13 1.228-.388a2.37 2.37 0 0 0 .746-1.054c.17-.444.254-.938.254-1.481 0-.537-.083-1.021-.249-1.452a2.244 2.244 0 0 0-.74-1.029c-.329-.255-.741-.383-1.239-.383-.477 0-.878.121-1.203.363-.325.239-.57.573-.735 1.004-.166.428-.249.927-.249 1.497ZM60.66 80v-7.636h1.133v1.193h.1c.159-.408.416-.724.77-.95.355-.228.78-.343 1.278-.343.504 0 .923.115 1.258.343.338.226.601.542.79.95h.08c.195-.395.489-.708.88-.94.391-.235.86-.353 1.407-.353.683 0 1.241.214 1.675.642.434.424.651 1.085.651 1.983V80H69.51v-5.11c0-.564-.154-.967-.462-1.209a1.712 1.712 0 0 0-1.089-.363c-.537 0-.953.163-1.248.487-.295.322-.442.73-.442 1.223V80h-1.193v-5.23c0-.434-.141-.784-.423-1.05-.282-.268-.645-.402-1.089-.402-.305 0-.59.081-.855.244a1.84 1.84 0 0 0-.636.676c-.16.285-.239.615-.239.99V80H60.66Zm16.105 0v-7.636h1.174V80h-1.174Zm.597-8.91a.834.834 0 0 1-.592-.233.75.75 0 0 1-.243-.561.75.75 0 0 1 .243-.562.834.834 0 0 1 .592-.234c.229 0 .424.078.587.234a.744.744 0 0 1 .248.562.744.744 0 0 1-.249.561.817.817 0 0 1-.586.234Zm3.899 4.316V80h-1.173v-7.636h1.133v1.193h.1c.178-.388.45-.7.815-.935.364-.239.835-.358 1.412-.358.517 0 .97.106 1.357.318.388.21.69.527.905.955.215.424.323.961.323 1.61V80H84.96v-4.773c0-.6-.156-1.067-.468-1.402-.311-.338-.739-.507-1.282-.507-.375 0-.71.081-1.005.244-.291.162-.522.4-.69.71-.17.312-.254.69-.254 1.134Zm12.425-1.332-1.054.298a1.959 1.959 0 0 0-.293-.512 1.423 1.423 0 0 0-.517-.418c-.219-.109-.5-.164-.84-.164-.468 0-.857.108-1.169.324-.308.212-.462.482-.462.81 0 .292.106.522.318.691.212.169.544.31.994.423l1.134.278c.683.166 1.191.42 1.526.76.335.339.502.775.502 1.308 0 .438-.126.829-.378 1.174-.248.344-.596.616-1.044.815-.447.199-.967.298-1.56.298-.78 0-1.424-.169-1.935-.507-.51-.338-.833-.832-.97-1.481l1.115-.279c.106.411.306.72.601.925.298.205.688.308 1.168.308.547 0 .981-.116 1.303-.348.325-.235.487-.517.487-.845a.888.888 0 0 0-.278-.666c-.186-.183-.47-.319-.855-.408l-1.273-.298c-.7-.166-1.213-.423-1.541-.77-.325-.352-.487-.791-.487-1.318 0-.431.12-.812.362-1.144a2.47 2.47 0 0 1 1-.78 3.509 3.509 0 0 1 1.441-.284c.756 0 1.35.166 1.78.497.434.332.743.77.925 1.313Zm5.226-1.71v.994h-3.957v-.994h3.957Zm-2.803-1.83h1.173v7.278c0 .332.048.58.144.746.1.163.225.272.378.328.156.053.32.08.492.08.13 0 .235-.007.318-.02l.199-.04.239 1.054c-.08.03-.19.06-.333.09a2.45 2.45 0 0 1-.542.05c-.332 0-.657-.072-.975-.214a1.937 1.937 0 0 1-.785-.652c-.206-.291-.308-.66-.308-1.103v-7.597Zm6.816 9.645c-.484 0-.924-.091-1.318-.273a2.264 2.264 0 0 1-.94-.8c-.232-.352-.348-.776-.348-1.274 0-.437.087-.792.259-1.063.172-.276.403-.491.691-.647.288-.156.607-.272.955-.348.351-.08.704-.142 1.058-.189.465-.06.841-.104 1.129-.134.292-.033.504-.088.636-.164.136-.076.204-.209.204-.398v-.04c0-.49-.134-.871-.402-1.143-.266-.272-.668-.408-1.209-.408-.56 0-.999.123-1.317.368-.318.246-.542.507-.671.786l-1.114-.398c.199-.464.464-.825.796-1.084a2.974 2.974 0 0 1 1.093-.547c.398-.106.789-.159 1.174-.159.245 0 .527.03.845.09.321.056.631.174.93.353.301.179.551.449.75.81.199.361.299.845.299 1.452V80h-1.174v-1.034h-.059c-.08.166-.213.343-.398.532-.186.189-.433.35-.741.482-.308.133-.684.199-1.128.199Zm.179-1.054c.464 0 .855-.091 1.173-.273a1.87 1.87 0 0 0 .726-.706c.165-.289.248-.592.248-.91v-1.074c-.049.06-.159.114-.328.164a5.554 5.554 0 0 1-.577.124 25.685 25.685 0 0 1-1.123.15c-.305.04-.59.104-.855.193a1.479 1.479 0 0 0-.637.393c-.159.172-.238.408-.238.706 0 .408.151.716.452.925.305.205.691.308 1.159.308Zm6.635-9.307V80h-1.173V69.818h1.173Zm3.323 0V80h-1.174V69.818h1.174ZM119.148 80v-7.636h1.134v1.153h.079c.139-.378.391-.684.756-.92a2.222 2.222 0 0 1 1.233-.353c.086 0 .194.002.323.005.129.004.227.009.293.015v1.193a3.492 3.492 0 0 0-.273-.044 2.694 2.694 0 0 0-.443-.035c-.371 0-.702.078-.994.234a1.712 1.712 0 0 0-.935 1.556V80h-1.173Zm8.178.16c-.735 0-1.37-.163-1.904-.488a3.276 3.276 0 0 1-1.228-1.372c-.285-.59-.427-1.276-.427-2.058 0-.783.142-1.472.427-2.069.289-.6.69-1.067 1.203-1.402.517-.338 1.121-.507 1.81-.507.398 0 .791.067 1.178.2.388.132.741.347 1.059.645.318.295.572.687.761 1.174.189.487.283 1.087.283 1.8v.496h-5.886v-1.014h4.693c0-.43-.086-.815-.258-1.153a1.948 1.948 0 0 0-.726-.8c-.312-.196-.68-.294-1.104-.294-.467 0-.872.116-1.213.348a2.297 2.297 0 0 0-.781.895 2.632 2.632 0 0 0-.273 1.183v.677c0 .576.099 1.065.298 1.466.202.398.483.701.84.91.358.205.774.308 1.248.308.309 0 .587-.043.836-.13.251-.089.469-.221.651-.397.182-.179.323-.4.422-.666l1.134.318c-.119.385-.32.723-.602 1.014a2.92 2.92 0 0 1-1.044.677c-.414.158-.88.238-1.397.238Zm10.356-6.086-1.054.298a1.955 1.955 0 0 0-.293-.512 1.421 1.421 0 0 0-.517-.418c-.219-.109-.499-.164-.84-.164-.468 0-.857.108-1.169.324-.308.212-.462.482-.462.81 0 .292.106.522.318.691.212.169.544.31.994.423l1.134.278c.683.166 1.191.42 1.526.76.335.339.502.775.502 1.308 0 .438-.126.829-.377 1.174-.249.344-.597.616-1.044.815-.448.199-.968.298-1.562.298-.778 0-1.423-.169-1.934-.507-.51-.338-.833-.832-.969-1.481l1.114-.279c.106.411.306.72.601.925.299.205.688.308 1.169.308.546 0 .981-.116 1.302-.348.325-.235.487-.517.487-.845a.886.886 0 0 0-.278-.666c-.186-.183-.471-.319-.855-.408l-1.273-.298c-.699-.166-1.213-.423-1.541-.77-.325-.352-.487-.791-.487-1.318 0-.431.121-.812.363-1.144.245-.331.578-.591.999-.78a3.51 3.51 0 0 1 1.442-.284c.755 0 1.349.166 1.779.497.435.332.743.77.925 1.313Zm1.906 8.79v-10.5h1.133v1.213h.139c.086-.133.206-.302.358-.507.156-.21.378-.395.666-.557.292-.166.686-.249 1.184-.249.643 0 1.209.161 1.7.482.49.322.873.778 1.148 1.368.275.59.413 1.286.413 2.088 0 .808-.138 1.51-.413 2.103-.275.59-.656 1.047-1.143 1.372-.487.321-1.049.482-1.685.482-.491 0-.884-.081-1.179-.244a2.182 2.182 0 0 1-.681-.561 7.5 7.5 0 0 1-.368-.527h-.099v4.037h-1.173Zm1.153-6.682c0 .576.084 1.085.253 1.526.17.438.416.78.741 1.03.325.245.723.367 1.193.367.491 0 .9-.13 1.228-.388a2.37 2.37 0 0 0 .746-1.054c.169-.444.254-.938.254-1.481 0-.537-.083-1.021-.249-1.452a2.237 2.237 0 0 0-.741-1.029c-.328-.255-.74-.383-1.238-.383-.477 0-.878.121-1.203.363-.324.239-.57.573-.735 1.004-.166.428-.249.927-.249 1.497Zm10.48 3.977c-.689 0-1.294-.164-1.815-.492a3.346 3.346 0 0 1-1.213-1.377c-.288-.59-.432-1.28-.432-2.068 0-.796.144-1.49.432-2.084a3.34 3.34 0 0 1 1.213-1.382c.521-.328 1.126-.492 1.815-.492.689 0 1.293.164 1.81.492.52.329.924.79 1.213 1.382.291.594.437 1.288.437 2.084 0 .788-.146 1.478-.437 2.068a3.305 3.305 0 0 1-1.213 1.377c-.517.328-1.121.492-1.81.492Zm0-1.054c.524 0 .955-.134 1.293-.403a2.37 2.37 0 0 0 .75-1.058c.163-.438.244-.912.244-1.422 0-.51-.081-.986-.244-1.427a2.4 2.4 0 0 0-.75-1.07c-.338-.27-.769-.407-1.293-.407-.524 0-.954.136-1.293.408a2.4 2.4 0 0 0-.75 1.069c-.163.44-.244.916-.244 1.427 0 .51.081.984.244 1.422.162.437.412.79.75 1.058.339.269.769.403 1.293.403Zm6.425-3.699V80h-1.174v-7.636h1.134v1.193h.099c.179-.388.451-.7.816-.935.364-.239.835-.358 1.412-.358.517 0 .969.106 1.357.318.388.21.689.527.905.955.215.424.323.961.323 1.61V80h-1.174v-4.773c0-.6-.155-1.067-.467-1.402-.311-.338-.739-.507-1.283-.507-.374 0-.709.081-1.004.244-.291.162-.522.4-.691.71-.169.312-.253.69-.253 1.134Zm12.425-1.332-1.054.298a1.955 1.955 0 0 0-.293-.512 1.425 1.425 0 0 0-.518-.418c-.218-.109-.498-.164-.84-.164-.467 0-.856.108-1.168.324-.308.212-.462.482-.462.81 0 .292.106.522.318.691.212.169.543.31.994.423l1.134.278c.682.166 1.191.42 1.526.76.335.339.502.775.502 1.308 0 .438-.126.829-.378 1.174-.248.344-.596.616-1.044.815-.447.199-.968.298-1.561.298-.779 0-1.423-.169-1.934-.507-.51-.338-.833-.832-.969-1.481l1.113-.279c.106.411.307.72.602.925.298.205.688.308 1.168.308.547 0 .981-.116 1.303-.348.325-.235.487-.517.487-.845a.89.89 0 0 0-.278-.666c-.186-.183-.471-.319-.856-.408l-1.272-.298c-.7-.166-1.213-.423-1.541-.77-.325-.352-.488-.791-.488-1.318 0-.431.121-.812.363-1.144a2.477 2.477 0 0 1 1-.78 3.504 3.504 0 0 1 1.441-.284c.756 0 1.349.166 1.78.497.434.332.743.77.925 1.313ZM171.976 80v-7.636h1.174V80h-1.174Zm.597-8.91a.835.835 0 0 1-.592-.233.751.751 0 0 1-.243-.561c0-.22.081-.407.243-.562a.835.835 0 0 1 .592-.234c.228 0 .424.078.586.234a.743.743 0 0 1 .249.562.743.743 0 0 1-.249.561.816.816 0 0 1-.586.234Zm8.97 1.274L178.719 80h-1.193l-2.824-7.636h1.273l2.108 6.085h.079l2.108-6.085h1.273Zm4.477 7.795c-.736 0-1.371-.162-1.904-.487a3.263 3.263 0 0 1-1.228-1.372c-.285-.59-.428-1.276-.428-2.058 0-.783.143-1.472.428-2.069.288-.6.689-1.067 1.203-1.402.517-.338 1.12-.507 1.809-.507.398 0 .791.067 1.179.2.387.132.74.347 1.059.645.318.295.571.687.76 1.174.189.487.284 1.087.284 1.8v.496h-5.887v-1.014h4.693c0-.43-.086-.815-.258-1.153a1.948 1.948 0 0 0-.726-.8c-.311-.196-.679-.294-1.104-.294-.467 0-.871.116-1.213.348a2.286 2.286 0 0 0-.78.895 2.62 2.62 0 0 0-.274 1.183v.677c0 .576.1 1.065.299 1.466.202.398.482.701.84.91.358.205.774.308 1.248.308.308 0 .586-.043.835-.13.252-.089.469-.221.651-.397.183-.179.323-.4.423-.666l1.133.318c-.119.385-.32.723-.601 1.014-.282.289-.63.514-1.044.677-.415.158-.88.238-1.397.238Zm9.321-5.07v1.093h-4.454v-1.094h4.454Zm8.309-2.725L200.826 80h-1.193l-2.824-7.636h1.273l2.108 6.085h.08l2.107-6.085h1.273ZM205.199 80v-7.636h1.173V80h-1.173Zm.596-8.91a.834.834 0 0 1-.591-.233.749.749 0 0 1-.244-.561c0-.22.081-.407.244-.562a.834.834 0 0 1 .591-.234c.229 0 .425.078.587.234a.743.743 0 0 1 .249.562.743.743 0 0 1-.249.561.817.817 0 0 1-.587.234Zm5.61 9.07c-.637 0-1.199-.162-1.686-.483-.487-.325-.868-.782-1.143-1.372-.275-.594-.413-1.295-.413-2.103 0-.802.138-1.498.413-2.088.275-.59.658-1.046 1.148-1.368.491-.321 1.058-.482 1.701-.482.497 0 .889.083 1.178.249.291.162.514.348.666.557.156.205.277.374.363.507h.099v-3.759h1.174V80h-1.134v-1.173h-.139a7.5 7.5 0 0 1-.368.527 2.182 2.182 0 0 1-.681.561c-.295.163-.688.244-1.178.244Zm.159-1.055c.47 0 .868-.123 1.193-.368.325-.248.572-.591.741-1.029.169-.44.253-.95.253-1.526 0-.57-.083-1.07-.248-1.497-.166-.43-.411-.765-.736-1.004-.325-.242-.726-.363-1.203-.363-.497 0-.912.128-1.243.383a2.295 2.295 0 0 0-.741 1.03 4.1 4.1 0 0 0-.244 1.45c0 .544.083 1.038.249 1.482.169.441.418.793.746 1.054.331.259.742.388 1.233.388Z"/>
  <path fill="#fff" d="M34.057 109.304v-6.563h1.113v6.563h-1.113Zm-2.725-2.724v-1.114h6.563v1.114h-6.563ZM44.24 110v-7.636h1.133v1.153h.08c.14-.378.391-.684.756-.92a2.227 2.227 0 0 1 1.233-.353c.086 0 .194.002.323.005.129.004.227.009.293.015v1.193a3.665 3.665 0 0 0-.273-.044 2.605 2.605 0 0 0-.443-.035c-.371 0-.703.078-.994.234a1.713 1.713 0 0 0-.935 1.556V110H44.24Zm8.178.159c-.736 0-1.37-.162-1.904-.487a3.273 3.273 0 0 1-1.228-1.372c-.285-.59-.428-1.276-.428-2.059 0-.782.143-1.471.428-2.068.288-.6.69-1.067 1.203-1.402.517-.338 1.12-.507 1.81-.507.398 0 .79.066 1.178.199.388.133.74.348 1.059.646.318.295.572.686.76 1.174.19.487.284 1.087.284 1.799v.498h-5.886v-1.015h4.693c0-.431-.086-.815-.259-1.153a1.944 1.944 0 0 0-.725-.8c-.312-.196-.68-.294-1.104-.294-.468 0-.872.116-1.213.348a2.29 2.29 0 0 0-.78.895 2.628 2.628 0 0 0-.274 1.183v.676c0 .577.1 1.066.298 1.467.202.398.482.701.84.91.358.205.774.308 1.248.308.308 0 .587-.043.835-.129a1.79 1.79 0 0 0 .652-.398c.182-.179.323-.401.422-.666l1.134.318c-.12.385-.32.723-.602 1.014-.282.289-.63.514-1.044.676-.414.16-.88.239-1.397.239Zm10.356-6.085-1.054.298a1.958 1.958 0 0 0-.293-.512 1.431 1.431 0 0 0-.517-.418c-.22-.109-.5-.164-.84-.164-.468 0-.857.108-1.169.324-.308.212-.462.482-.462.81 0 .292.106.522.318.691.212.169.544.31.994.423l1.134.278c.683.166 1.191.419 1.526.761.335.338.502.774.502 1.307 0 .438-.126.829-.378 1.173-.248.345-.596.617-1.044.816-.447.199-.968.298-1.56.298-.78 0-1.424-.169-1.935-.507-.51-.338-.833-.832-.97-1.482l1.114-.278c.106.411.307.719.602.925.298.205.688.308 1.168.308.547 0 .981-.116 1.303-.348.325-.235.487-.517.487-.845a.888.888 0 0 0-.278-.666c-.186-.183-.47-.319-.855-.408l-1.273-.298c-.7-.166-1.213-.423-1.541-.771-.325-.351-.488-.79-.488-1.317 0-.431.121-.812.363-1.144a2.473 2.473 0 0 1 1-.78 3.507 3.507 0 0 1 1.441-.284c.756 0 1.35.166 1.78.497.434.332.743.769.925 1.313Zm1.905 8.79v-10.5h1.134v1.213h.14c.085-.133.205-.302.357-.507.156-.209.378-.395.666-.557.292-.166.686-.249 1.183-.249.643 0 1.21.161 1.7.482.491.322.874.778 1.15 1.368.274.59.412 1.286.412 2.088 0 .808-.138 1.509-.413 2.103-.275.59-.656 1.047-1.143 1.372-.487.321-1.05.482-1.686.482-.49 0-.883-.081-1.178-.244a2.182 2.182 0 0 1-.681-.561 7.516 7.516 0 0 1-.368-.527h-.1v4.037H64.68Zm1.154-6.682c0 .577.084 1.085.253 1.526.17.438.416.781.741 1.029.325.245.723.368 1.193.368.49 0 .9-.129 1.228-.388.332-.262.58-.613.746-1.054.169-.444.254-.938.254-1.481 0-.537-.083-1.021-.25-1.452a2.245 2.245 0 0 0-.74-1.029c-.328-.255-.74-.383-1.238-.383-.477 0-.878.121-1.203.363-.325.239-.57.573-.736 1.004-.165.428-.248.927-.248 1.497Zm10.48 3.977c-.69 0-1.294-.164-1.815-.492a3.342 3.342 0 0 1-1.213-1.377c-.288-.59-.432-1.28-.432-2.068 0-.796.144-1.49.432-2.084a3.344 3.344 0 0 1 1.213-1.382c.52-.328 1.126-.492 1.815-.492.69 0 1.293.164 1.81.492.52.329.924.789 1.213 1.382.291.594.437 1.288.437 2.084 0 .788-.146 1.478-.437 2.068a3.297 3.297 0 0 1-1.213 1.377c-.517.328-1.12.492-1.81.492Zm0-1.054c.523 0 .954-.134 1.293-.403a2.37 2.37 0 0 0 .75-1.059 4.05 4.05 0 0 0 .244-1.421c0-.511-.081-.986-.244-1.427a2.406 2.406 0 0 0-.75-1.069c-.339-.272-.77-.408-1.293-.408-.524 0-.955.136-1.293.408a2.406 2.406 0 0 0-.75 1.069 4.095 4.095 0 0 0-.244 1.427c0 .51.081.984.243 1.421.163.438.413.791.751 1.059.338.269.77.403 1.293.403Zm6.424-3.699V110h-1.173v-7.636h1.134v1.193h.1c.178-.388.45-.7.814-.935.365-.238.836-.358 1.412-.358.517 0 .97.106 1.358.318.387.209.689.527.904.955.216.424.324.961.324 1.611V110h-1.174v-4.773c0-.6-.156-1.067-.467-1.402-.312-.338-.74-.507-1.283-.507-.374 0-.709.081-1.004.244a1.738 1.738 0 0 0-.691.711c-.17.311-.254.689-.254 1.133Zm12.426-1.332-1.054.298a1.956 1.956 0 0 0-.294-.512 1.431 1.431 0 0 0-.517-.418c-.219-.109-.499-.164-.84-.164-.467 0-.857.108-1.168.324-.309.212-.463.482-.463.81 0 .292.106.522.319.691.212.169.543.31.994.423l1.133.278c.683.166 1.192.419 1.527.761.335.338.502.774.502 1.307 0 .438-.126.829-.378 1.173-.249.345-.597.617-1.044.816-.447.199-.968.298-1.561.298-.779 0-1.424-.169-1.934-.507-.51-.338-.834-.832-.97-1.482l1.114-.278c.106.411.307.719.602.925.298.205.687.308 1.168.308.547 0 .981-.116 1.303-.348.324-.235.487-.517.487-.845a.888.888 0 0 0-.279-.666c-.185-.183-.47-.319-.855-.408l-1.272-.298c-.7-.166-1.214-.423-1.542-.771-.325-.351-.487-.79-.487-1.317 0-.431.121-.812.363-1.144a2.474 2.474 0 0 1 1-.78 3.508 3.508 0 0 1 1.441-.284c.756 0 1.35.166 1.78.497.434.332.742.769.925 1.313ZM97.068 110v-7.636h1.173V110h-1.173Zm.597-8.909a.833.833 0 0 1-.592-.234.751.751 0 0 1-.244-.562.75.75 0 0 1 .244-.561.834.834 0 0 1 .592-.234c.228 0 .424.078.586.234a.743.743 0 0 1 .249.561.744.744 0 0 1-.249.562.816.816 0 0 1-.586.234Zm8.97 1.273L103.811 110h-1.193l-2.824-7.636h1.272l2.108 6.085h.08l2.108-6.085h1.273Zm4.477 7.795c-.736 0-1.371-.162-1.905-.487a3.28 3.28 0 0 1-1.228-1.372c-.285-.59-.427-1.276-.427-2.059 0-.782.142-1.471.427-2.068.289-.6.69-1.067 1.204-1.402.517-.338 1.12-.507 1.809-.507.398 0 .791.066 1.178.199.388.133.741.348 1.059.646.319.295.572.686.761 1.174.189.487.283 1.087.283 1.799v.498h-5.886v-1.015h4.693c0-.431-.086-.815-.258-1.153a1.943 1.943 0 0 0-.726-.8c-.312-.196-.68-.294-1.104-.294-.467 0-.871.116-1.213.348a2.288 2.288 0 0 0-.78.895 2.62 2.62 0 0 0-.274 1.183v.676c0 .577.1 1.066.298 1.467.203.398.483.701.841.91.358.205.774.308 1.248.308.308 0 .586-.043.835-.129.252-.09.469-.222.651-.398a1.82 1.82 0 0 0 .423-.666l1.133.318c-.119.385-.32.723-.601 1.014-.282.289-.63.514-1.044.676-.415.16-.88.239-1.397.239Zm9.321-5.071v1.094h-4.454v-1.094h4.454Zm8.309-2.724L125.918 110h-1.193l-2.824-7.636h1.273l2.108 6.085h.079l2.108-6.085h1.273Zm1.549 7.636v-7.636h1.173V110h-1.173Zm.596-8.909a.832.832 0 0 1-.591-.234.75.75 0 0 1-.244-.562c0-.218.081-.406.244-.561a.833.833 0 0 1 .591-.234c.229 0 .424.078.587.234a.742.742 0 0 1 .248.561.743.743 0 0 1-.248.562.818.818 0 0 1-.587.234Zm5.609 9.068c-.636 0-1.198-.161-1.685-.482-.487-.325-.868-.782-1.143-1.372-.275-.594-.413-1.295-.413-2.103 0-.802.138-1.498.413-2.088.275-.59.658-1.046 1.148-1.368.491-.321 1.057-.482 1.7-.482.497 0 .89.083 1.179.249.291.162.513.348.666.557.156.205.277.374.363.507h.099v-3.759h1.173V110h-1.133v-1.173h-.139a7.523 7.523 0 0 1-.368.527 2.182 2.182 0 0 1-.681.561c-.295.163-.688.244-1.179.244Zm.16-1.054c.47 0 .868-.123 1.193-.368.325-.248.571-.591.74-1.029.17-.441.254-.949.254-1.526 0-.57-.083-1.069-.249-1.497-.165-.431-.411-.765-.735-1.004-.325-.242-.726-.363-1.203-.363-.498 0-.912.128-1.243.383a2.296 2.296 0 0 0-.741 1.029 4.08 4.08 0 0 0-.244 1.452c0 .543.083 1.037.249 1.481.169.441.417.792.746 1.054.331.259.742.388 1.233.388Zm11.519 3.58c-1.014 0-1.911-.14-2.69-.418-.779-.275-1.433-.681-1.964-1.218-.53-.537-.931-1.195-1.203-1.974-.272-.779-.407-1.67-.407-2.674 0-.972.137-1.84.412-2.606a5.319 5.319 0 0 1 1.208-1.948 5.245 5.245 0 0 1 1.929-1.228c.759-.282 1.618-.423 2.576-.423.931 0 1.746.152 2.446.457a5.018 5.018 0 0 1 1.759 1.228 5.142 5.142 0 0 1 1.064 1.735c.239.643.358 1.306.358 1.989 0 .481-.023.968-.069 1.462a5.522 5.522 0 0 1-.294 1.362 2.216 2.216 0 0 1-.691.994c-.308.252-.725.378-1.252.378-.232 0-.488-.036-.766-.109a2.013 2.013 0 0 1-.741-.363 1.01 1.01 0 0 1-.383-.681h-.059c-.08.192-.203.374-.368.547a1.723 1.723 0 0 1-.642.412c-.261.103-.581.148-.959.134a2.584 2.584 0 0 1-1.139-.288 2.476 2.476 0 0 1-.825-.726 3.404 3.404 0 0 1-.497-1.069 5.076 5.076 0 0 1-.164-1.317c0-.448.066-.857.199-1.228.132-.371.316-.696.552-.975.238-.278.517-.5.835-.666a2.871 2.871 0 0 1 1.039-.313c.331-.033.633-.018.905.045.272.059.495.151.671.273.176.12.287.252.333.398h.06v-.557h1.054v4.494c0 .279.078.524.233.736.156.212.383.318.681.318.338 0 .597-.116.776-.348.182-.232.307-.589.373-1.073.069-.484.104-1.104.104-1.86 0-.444-.061-.881-.184-1.312a4.307 4.307 0 0 0-.547-1.218 3.99 3.99 0 0 0-.919-1 4.272 4.272 0 0 0-1.308-.676c-.497-.165-1.062-.248-1.695-.248-.779 0-1.477.121-2.093.363a4.186 4.186 0 0 0-1.566 1.049 4.594 4.594 0 0 0-.98 1.67c-.222.653-.333 1.395-.333 2.227 0 .846.111 1.596.333 2.252.226.657.557 1.21.995 1.661.44.451.986.792 1.635 1.024.65.235 1.399.353 2.247.353a5.63 5.63 0 0 0 1.079-.104c.355-.07.668-.146.94-.229.272-.083.467-.144.587-.184l.278.915a6.131 6.131 0 0 1-.805.258c-.329.087-.68.158-1.054.214a7.155 7.155 0 0 1-1.064.085Zm-.577-3.958c.444 0 .804-.089 1.079-.268.275-.179.475-.449.601-.811.126-.361.189-.817.189-1.367 0-.557-.069-.991-.208-1.302-.14-.312-.345-.531-.617-.657s-.606-.188-1.004-.188c-.378 0-.701.099-.97.298a1.878 1.878 0 0 0-.611.785c-.139.325-.209.68-.209 1.064 0 .424.056.824.169 1.198.113.372.297.673.552.905.255.229.598.343 1.029.343Zm11.381-8.909V110h-1.233v-8.889h-.059l-2.486 1.65v-1.252l2.545-1.69h1.233Zm3.202 10.262a.859.859 0 0 1-.631-.264.86.86 0 0 1-.264-.631c0-.246.088-.456.264-.632a.862.862 0 0 1 .631-.263c.245 0 .456.088.631.263a.861.861 0 0 1 .264.632.85.85 0 0 1-.124.447.934.934 0 0 1-.324.328.845.845 0 0 1-.447.12Zm5.946.059c-.749 0-1.387-.204-1.914-.611-.527-.411-.93-1.006-1.208-1.785-.279-.782-.418-1.727-.418-2.834 0-1.1.139-2.04.418-2.819.282-.782.686-1.379 1.213-1.79.53-.414 1.167-.621 1.909-.621s1.377.207 1.904.621c.53.411.935 1.008 1.213 1.79.282.779.423 1.719.423 2.819 0 1.107-.139 2.052-.418 2.834-.278.779-.681 1.374-1.208 1.785-.527.407-1.165.611-1.914.611Zm0-1.094c.742 0 1.319-.358 1.73-1.073.411-.716.617-1.737.617-3.063 0-.882-.095-1.632-.284-2.252-.185-.62-.454-1.092-.805-1.417a1.778 1.778 0 0 0-1.258-.487c-.736 0-1.311.363-1.725 1.089-.414.722-.622 1.745-.622 3.067 0 .882.093 1.631.279 2.247.185.617.452 1.086.8 1.407.352.322.774.482 1.268.482Zm5.948 1.035a.86.86 0 0 1-.631-.264.86.86 0 0 1-.263-.631.86.86 0 0 1 .263-.632.864.864 0 0 1 .631-.263c.246 0 .456.088.632.263a.86.86 0 0 1 .263.632.841.841 0 0 1-.124.447.923.923 0 0 1-.323.328.851.851 0 0 1-.448.12Zm5.946.059c-.749 0-1.387-.204-1.914-.611-.527-.411-.929-1.006-1.208-1.785-.278-.782-.417-1.727-.417-2.834 0-1.1.139-2.04.417-2.819.282-.782.686-1.379 1.213-1.79.531-.414 1.167-.621 1.909-.621.743 0 1.378.207 1.905.621.53.411.934 1.008 1.213 1.79.281.779.422 1.719.422 2.819 0 1.107-.139 2.052-.417 2.834-.279.779-.681 1.374-1.208 1.785-.527.407-1.165.611-1.915.611Zm0-1.094c.743 0 1.32-.358 1.731-1.073.411-.716.616-1.737.616-3.063 0-.882-.094-1.632-.283-2.252-.186-.62-.454-1.092-.806-1.417a1.776 1.776 0 0 0-1.258-.487c-.735 0-1.31.363-1.725 1.089-.414.722-.621 1.745-.621 3.067 0 .882.093 1.631.278 2.247.186.617.453 1.086.801 1.407.351.322.774.482 1.267.482ZM33.321 140.179c-.484 0-.923-.091-1.317-.273a2.265 2.265 0 0 1-.94-.801c-.232-.351-.348-.775-.348-1.273 0-.437.086-.792.258-1.064.173-.275.403-.49.692-.646.288-.156.606-.272.954-.348a12.03 12.03 0 0 1 1.059-.189c.464-.059.84-.104 1.128-.134.292-.033.504-.088.637-.164.136-.076.204-.209.204-.398v-.04c0-.49-.135-.871-.403-1.143-.265-.272-.668-.408-1.208-.408-.56 0-1 .123-1.318.368-.318.245-.541.507-.67.786l-1.114-.398c.199-.464.464-.825.795-1.084.335-.262.7-.444 1.094-.547a4.543 4.543 0 0 1 1.173-.159c.245 0 .527.03.845.09.322.056.632.174.93.353.302.179.552.449.75.81.2.361.299.845.299 1.452V140h-1.173v-1.034h-.06c-.08.166-.212.343-.398.532-.185.189-.432.35-.74.482-.309.133-.685.199-1.129.199Zm.179-1.054c.464 0 .855-.091 1.173-.273.322-.183.564-.418.726-.706.166-.289.249-.592.249-.91v-1.074c-.05.06-.16.114-.328.164a5.527 5.527 0 0 1-.577.124c-.215.033-.426.063-.632.09-.202.023-.366.043-.492.059-.305.04-.59.105-.855.194a1.47 1.47 0 0 0-.636.393c-.16.172-.239.408-.239.706 0 .408.151.716.453.925.305.205.69.308 1.158.308Zm8.346 1.034c-.636 0-1.198-.161-1.685-.482-.488-.325-.869-.782-1.144-1.372-.275-.594-.412-1.295-.412-2.103 0-.802.137-1.498.412-2.088.275-.59.658-1.046 1.149-1.368.49-.321 1.057-.482 1.7-.482.497 0 .89.083 1.178.249.292.162.514.348.666.557.156.205.277.374.363.507h.1v-3.759h1.173V140h-1.133v-1.173h-.14a7.516 7.516 0 0 1-.368.527c-.159.208-.386.396-.68.561-.296.163-.688.244-1.179.244Zm.16-1.054c.47 0 .867-.123 1.192-.368.325-.248.572-.591.741-1.029.17-.441.254-.949.254-1.526 0-.57-.083-1.069-.249-1.497-.166-.431-.41-.765-.736-1.004-.325-.242-.726-.363-1.203-.363-.497 0-.911.128-1.243.383a2.292 2.292 0 0 0-.74 1.029 4.093 4.093 0 0 0-.244 1.452c0 .543.083 1.037.248 1.481.17.441.418.792.746 1.054.332.259.743.388 1.233.388Zm8.535 1.054c-.636 0-1.198-.161-1.685-.482-.487-.325-.868-.782-1.144-1.372-.275-.594-.412-1.295-.412-2.103 0-.802.137-1.498.413-2.088.275-.59.657-1.046 1.148-1.368.49-.321 1.057-.482 1.7-.482.497 0 .89.083 1.178.249.292.162.514.348.667.557.156.205.276.374.363.507h.1v-3.759h1.172V140h-1.133v-1.173h-.14a7.516 7.516 0 0 1-.367.527 2.182 2.182 0 0 1-.681.561c-.295.163-.688.244-1.179.244Zm.16-1.054c.47 0 .868-.123 1.193-.368.325-.248.571-.591.74-1.029.17-.441.254-.949.254-1.526 0-.57-.083-1.069-.249-1.497-.165-.431-.41-.765-.735-1.004-.325-.242-.726-.363-1.204-.363-.497 0-.911.128-1.242.383a2.292 2.292 0 0 0-.741 1.029 4.093 4.093 0 0 0-.244 1.452c0 .543.083 1.037.249 1.481.169.441.417.792.745 1.054.332.259.743.388 1.233.388Zm8.854 1.054c-.736 0-1.37-.162-1.904-.487a3.272 3.272 0 0 1-1.228-1.372c-.285-.59-.428-1.276-.428-2.059 0-.782.143-1.471.428-2.068.288-.6.69-1.067 1.203-1.402.517-.338 1.12-.507 1.81-.507.397 0 .79.066 1.178.199.388.133.74.348 1.059.646.318.295.572.686.76 1.174.19.487.284 1.087.284 1.799v.498H56.83v-1.015h4.694c0-.431-.087-.815-.259-1.153a1.944 1.944 0 0 0-.726-.8c-.311-.196-.68-.294-1.104-.294-.467 0-.871.116-1.213.348a2.29 2.29 0 0 0-.78.895 2.628 2.628 0 0 0-.273 1.183v.676c0 .577.099 1.066.298 1.467.202.398.482.701.84.91.358.205.774.308 1.248.308.308 0 .587-.043.835-.129a1.79 1.79 0 0 0 .651-.398c.183-.179.324-.401.423-.666l1.133.318c-.119.385-.32.723-.601 1.014-.282.289-.63.514-1.044.676-.414.16-.88.239-1.397.239Zm7.83 0c-.636 0-1.198-.161-1.685-.482-.487-.325-.869-.782-1.144-1.372-.275-.594-.412-1.295-.412-2.103 0-.802.137-1.498.412-2.088.275-.59.658-1.046 1.149-1.368.49-.321 1.057-.482 1.7-.482.497 0 .89.083 1.178.249.292.162.514.348.666.557.156.205.277.374.363.507h.1v-3.759h1.173V140h-1.133v-1.173h-.14a7.55 7.55 0 0 1-.367.527c-.16.208-.387.396-.682.561-.295.163-.687.244-1.178.244Zm.16-1.054c.47 0 .868-.123 1.192-.368.325-.248.572-.591.741-1.029.17-.441.254-.949.254-1.526 0-.57-.083-1.069-.249-1.497-.166-.431-.41-.765-.736-1.004-.325-.242-.725-.363-1.203-.363-.497 0-.911.128-1.243.383a2.294 2.294 0 0 0-.74 1.029 4.093 4.093 0 0 0-.244 1.452c0 .543.083 1.037.249 1.481.169.441.417.792.745 1.054.332.259.743.388 1.233.388Zm13.15-9.287V140H79.46v-8.889h-.06l-2.485 1.65v-1.252l2.545-1.691h1.233Zm6.885 13.046v-10.5h1.133v1.213h.14c.086-.133.205-.302.357-.507a2.09 2.09 0 0 1 .667-.557c.291-.166.686-.249 1.183-.249.643 0 1.21.161 1.7.482.49.322.873.778 1.149 1.368.275.59.412 1.286.412 2.088 0 .808-.137 1.509-.412 2.103-.276.59-.657 1.047-1.144 1.372-.487.321-1.049.482-1.685.482-.49 0-.884-.081-1.178-.244a2.184 2.184 0 0 1-.682-.561 7.544 7.544 0 0 1-.367-.527h-.1v4.037H87.58Zm1.153-6.682c0 .577.085 1.085.254 1.526.169.438.416.781.74 1.029.325.245.723.368 1.194.368.49 0 .9-.129 1.228-.388.331-.262.58-.613.745-1.054.17-.444.254-.938.254-1.481a4.02 4.02 0 0 0-.249-1.452 2.245 2.245 0 0 0-.74-1.029c-.329-.255-.741-.383-1.238-.383-.478 0-.879.121-1.204.363-.324.239-.57.573-.735 1.004-.166.428-.249.927-.249 1.497Zm9.625 3.997c-.484 0-.923-.091-1.317-.273a2.265 2.265 0 0 1-.94-.801c-.232-.351-.348-.775-.348-1.273 0-.437.086-.792.258-1.064.173-.275.403-.49.692-.646.288-.156.606-.272.954-.348a12.03 12.03 0 0 1 1.06-.189c.463-.059.84-.104 1.128-.134.291-.033.503-.088.636-.164.136-.076.204-.209.204-.398v-.04c0-.49-.134-.871-.403-1.143-.265-.272-.668-.408-1.208-.408-.56 0-1 .123-1.317.368-.319.245-.542.507-.672.786l-1.113-.398c.199-.464.464-.825.795-1.084.335-.262.7-.444 1.094-.547a4.543 4.543 0 0 1 1.173-.159c.245 0 .527.03.845.09.322.056.632.174.93.353.302.179.552.449.751.81.199.361.298.845.298 1.452V140h-1.173v-1.034h-.06a2.042 2.042 0 0 1-.398.532c-.185.189-.432.35-.74.482-.309.133-.685.199-1.129.199Zm.18-1.054c.463 0 .854-.091 1.172-.273a1.865 1.865 0 0 0 .975-1.616v-1.074c-.05.06-.159.114-.328.164a5.545 5.545 0 0 1-.577.124c-.215.033-.426.063-.631.09-.203.023-.367.043-.493.059-.305.04-.59.105-.855.194a1.47 1.47 0 0 0-.636.393c-.16.172-.239.408-.239.706 0 .408.151.716.453.925.305.205.69.308 1.158.308Zm8.564 1.034c-.716 0-1.332-.169-1.85-.507a3.31 3.31 0 0 1-1.193-1.397c-.278-.593-.417-1.271-.417-2.033 0-.776.142-1.46.427-2.054a3.394 3.394 0 0 1 1.203-1.397c.517-.338 1.121-.507 1.81-.507.537 0 1.021.1 1.452.298.431.199.784.478 1.059.836.275.358.445.775.512 1.253h-1.174c-.089-.348-.288-.657-.596-.925-.305-.272-.716-.408-1.233-.408-.457 0-.859.119-1.203.358-.342.235-.608.569-.801.999-.189.428-.283.93-.283 1.507 0 .59.093 1.104.278 1.541.189.438.454.777.796 1.019.345.242.749.363 1.213.363.305 0 .582-.053.83-.159.249-.106.459-.258.632-.457.172-.199.295-.438.367-.716h1.174c-.067.45-.231.856-.492 1.218a2.752 2.752 0 0 1-1.03.855c-.424.209-.918.313-1.481.313Zm5.812-2.943-.02-1.452h.238l3.341-3.4h1.452l-3.56 3.599h-.099l-1.352 1.253ZM111.82 140v-10.182h1.173V140h-1.173Zm4.852 0-2.983-3.778.836-.816 3.639 4.594h-1.492Zm5.01.179c-.484 0-.923-.091-1.317-.273a2.263 2.263 0 0 1-.94-.801c-.232-.351-.348-.775-.348-1.273 0-.437.086-.792.259-1.064a1.82 1.82 0 0 1 .691-.646c.288-.156.606-.272.954-.348.352-.079.705-.142 1.059-.189.464-.059.841-.104 1.129-.134.292-.033.504-.088.636-.164.136-.076.204-.209.204-.398v-.04c0-.49-.134-.871-.403-1.143-.265-.272-.667-.408-1.208-.408-.56 0-.999.123-1.317.368-.318.245-.542.507-.671.786l-1.114-.398c.199-.464.464-.825.795-1.084.335-.262.7-.444 1.094-.547a4.546 4.546 0 0 1 1.173-.159c.246 0 .527.03.846.09.321.056.631.174.929.353.302.179.552.449.751.81.199.361.298.845.298 1.452V140h-1.173v-1.034h-.06a2.059 2.059 0 0 1-.397.532c-.186.189-.433.35-.741.482-.308.133-.685.199-1.129.199Zm.179-1.054c.464 0 .855-.091 1.174-.273a1.867 1.867 0 0 0 .974-1.616v-1.074c-.05.06-.159.114-.328.164a5.534 5.534 0 0 1-.577.124c-.215.033-.426.063-.631.09-.202.023-.366.043-.492.059-.305.04-.59.105-.855.194a1.475 1.475 0 0 0-.637.393c-.159.172-.238.408-.238.706 0 .408.15.716.452.925.305.205.691.308 1.158.308Zm8.545 3.898c-.567 0-1.054-.073-1.461-.219a3.101 3.101 0 0 1-1.02-.567 3.092 3.092 0 0 1-.641-.746l.935-.656c.106.139.24.299.402.477.163.183.385.34.667.473.285.136.658.204 1.118.204.617 0 1.125-.15 1.527-.448.401-.298.601-.765.601-1.402v-1.551h-.099a6.505 6.505 0 0 1-.368.517 2.09 2.09 0 0 1-.676.542c-.292.156-.686.234-1.184.234-.616 0-1.17-.146-1.66-.438-.487-.291-.873-.716-1.159-1.273-.281-.556-.422-1.233-.422-2.028 0-.782.137-1.463.413-2.043.275-.584.657-1.034 1.148-1.353.491-.321 1.057-.482 1.7-.482.497 0 .892.083 1.184.249.294.162.52.348.676.557.159.205.281.374.368.507h.119v-1.213h1.133v7.855c0 .656-.149 1.19-.447 1.601a2.549 2.549 0 0 1-1.193.909 4.494 4.494 0 0 1-1.661.294Zm-.04-4.196c.471 0 .869-.108 1.194-.323.324-.216.571-.526.74-.93.169-.404.254-.888.254-1.452 0-.55-.083-1.036-.249-1.457a2.19 2.19 0 0 0-.735-.989c-.325-.239-.726-.358-1.204-.358-.497 0-.911.126-1.242.378-.329.252-.575.59-.741 1.014a3.908 3.908 0 0 0-.244 1.412c0 .53.083.999.249 1.407.169.404.417.723.746.955.331.228.742.343 1.232.343Zm8.691 1.332c-.736 0-1.371-.162-1.904-.487a3.266 3.266 0 0 1-1.228-1.372c-.285-.59-.428-1.276-.428-2.059 0-.782.143-1.471.428-2.068.288-.6.689-1.067 1.203-1.402.517-.338 1.12-.507 1.81-.507.397 0 .79.066 1.178.199.388.133.741.348 1.059.646.318.295.571.686.76 1.174.189.487.284 1.087.284 1.799v.498h-5.887v-1.015h4.694c0-.431-.087-.815-.259-1.153a1.943 1.943 0 0 0-.726-.8c-.311-.196-.679-.294-1.103-.294-.468 0-.872.116-1.214.348a2.288 2.288 0 0 0-.78.895 2.632 2.632 0 0 0-.274 1.183v.676c0 .577.1 1.066.299 1.467.202.398.482.701.84.91.358.205.774.308 1.248.308.308 0 .586-.043.835-.129.252-.09.469-.222.651-.398.183-.179.323-.401.423-.666l1.133.318a2.497 2.497 0 0 1-.601 1.014c-.282.289-.63.514-1.044.676-.414.16-.88.239-1.397.239Zm10.356-6.085-1.054.298a1.959 1.959 0 0 0-.294-.512 1.43 1.43 0 0 0-.517-.418c-.218-.109-.499-.164-.84-.164-.467 0-.857.108-1.168.324-.308.212-.463.482-.463.81 0 .292.106.522.319.691.212.169.543.31.994.423l1.133.278c.683.166 1.192.419 1.527.761.334.338.502.774.502 1.307 0 .438-.126.829-.378 1.173-.249.345-.597.617-1.044.816-.447.199-.968.298-1.561.298-.779 0-1.424-.169-1.934-.507-.51-.338-.834-.832-.97-1.482l1.114-.278c.106.411.307.719.602.925.298.205.687.308 1.168.308.547 0 .981-.116 1.303-.348.324-.235.487-.517.487-.845a.887.887 0 0 0-.279-.666c-.185-.183-.47-.319-.855-.408l-1.272-.298c-.7-.166-1.214-.423-1.542-.771-.324-.351-.487-.79-.487-1.317 0-.431.121-.812.363-1.144a2.47 2.47 0 0 1 .999-.78 3.511 3.511 0 0 1 1.442-.284c.756 0 1.349.166 1.78.497.434.332.742.769.925 1.313Zm5.843 5.926v-7.636h1.173V140h-1.173Zm.596-8.909a.834.834 0 0 1-.592-.234.752.752 0 0 1-.243-.562.75.75 0 0 1 .243-.561.834.834 0 0 1 .592-.234c.229 0 .424.078.587.234a.744.744 0 0 1 .248.561.746.746 0 0 1-.248.562.818.818 0 0 1-.587.234Zm3.899 4.315V140h-1.173v-7.636h1.133v1.193h.1c.179-.388.45-.7.815-.935.365-.238.835-.358 1.412-.358.517 0 .969.106 1.357.318.388.209.69.527.905.955.216.424.323.961.323 1.611V140h-1.173v-4.773c0-.6-.156-1.067-.467-1.402-.312-.338-.74-.507-1.283-.507-.375 0-.709.081-1.004.244a1.736 1.736 0 0 0-.691.711c-.169.311-.254.689-.254 1.133Zm14.255 4.733c-.749 0-1.387-.204-1.914-.611-.527-.411-.93-1.006-1.208-1.785-.279-.782-.418-1.727-.418-2.834 0-1.1.139-2.04.418-2.819.281-.782.686-1.379 1.213-1.79.53-.414 1.166-.621 1.909-.621.742 0 1.377.207 1.904.621.53.411.935 1.008 1.213 1.79.282.779.423 1.719.423 2.819 0 1.107-.14 2.052-.418 2.834-.278.779-.681 1.374-1.208 1.785-.527.407-1.165.611-1.914.611Zm0-1.094c.742 0 1.319-.358 1.73-1.073.411-.716.616-1.737.616-3.063 0-.882-.094-1.632-.283-2.252-.186-.62-.454-1.092-.805-1.417a1.778 1.778 0 0 0-1.258-.487c-.736 0-1.311.363-1.725 1.089-.415.722-.622 1.745-.622 3.067 0 .882.093 1.631.279 2.247.185.617.452 1.086.8 1.407a1.81 1.81 0 0 0 1.268.482Zm5.948 1.035a.86.86 0 0 1-.631-.264.86.86 0 0 1-.264-.631c0-.246.088-.456.264-.632a.864.864 0 0 1 .631-.263c.246 0 .456.088.632.263a.864.864 0 0 1 .263.632.93.93 0 0 1-.447.775.851.851 0 0 1-.448.12Zm6.038.059c-.656 0-1.241-.112-1.755-.338a3.007 3.007 0 0 1-1.218-.939 2.535 2.535 0 0 1-.487-1.407h1.253c.026.328.139.611.338.85.199.235.459.417.781.547a2.84 2.84 0 0 0 1.068.193c.438 0 .826-.076 1.164-.228.338-.153.603-.365.795-.637.193-.271.289-.586.289-.944a1.77 1.77 0 0 0-.279-.99c-.185-.288-.457-.513-.815-.676-.358-.162-.796-.243-1.313-.243h-.815v-1.094h.815c.405 0 .759-.073 1.064-.219a1.651 1.651 0 0 0 .985-1.551c0-.345-.077-.645-.229-.9a1.56 1.56 0 0 0-.646-.596 2.087 2.087 0 0 0-.975-.214c-.351 0-.683.064-.994.194-.308.126-.56.31-.756.552a1.441 1.441 0 0 0-.318.865h-1.193c.02-.534.181-1.001.482-1.402.302-.405.696-.72 1.183-.945a3.83 3.83 0 0 1 1.616-.338c.63 0 1.17.128 1.621.383.451.252.797.585 1.039.999.242.414.363.862.363 1.342 0 .574-.151 1.063-.453 1.467a2.294 2.294 0 0 1-1.218.84v.08c.643.106 1.146.379 1.507.82.361.438.542.979.542 1.626 0 .553-.151 1.05-.453 1.491a3.068 3.068 0 0 1-1.223 1.034c-.517.252-1.105.378-1.765.378Zm10.903-6.065-1.054.298a1.954 1.954 0 0 0-.293-.512 1.438 1.438 0 0 0-.517-.418c-.219-.109-.499-.164-.84-.164-.468 0-.857.108-1.169.324-.308.212-.462.482-.462.81 0 .292.106.522.318.691.212.169.544.31.994.423l1.134.278c.683.166 1.191.419 1.526.761.335.338.502.774.502 1.307 0 .438-.126.829-.378 1.173-.248.345-.596.617-1.044.816-.447.199-.967.298-1.561.298-.779 0-1.423-.169-1.934-.507-.51-.338-.833-.832-.969-1.482l1.114-.278c.106.411.306.719.601.925.298.205.688.308 1.168.308.547 0 .981-.116 1.303-.348.325-.235.487-.517.487-.845a.89.89 0 0 0-.278-.666c-.186-.183-.471-.319-.855-.408l-1.273-.298c-.699-.166-1.213-.423-1.541-.771-.325-.351-.487-.79-.487-1.317 0-.431.121-.812.362-1.144a2.48 2.48 0 0 1 1-.78 3.508 3.508 0 0 1 1.442-.284c.755 0 1.348.166 1.779.497.435.332.743.769.925 1.313Z"/>
  <path fill="#14F0BC" d="M34.057 171.273v-12.728h.815v12.728h-.815Zm2.744-8.909a1.563 1.563 0 0 0-.726-1.174c-.424-.278-.944-.417-1.56-.417-.452 0-.846.073-1.184.218a1.893 1.893 0 0 0-.786.602 1.44 1.44 0 0 0-.278.87c0 .272.065.506.194.701.133.192.302.353.507.482.205.126.421.231.646.314.226.079.433.144.622.193l1.034.279c.265.069.56.166.885.288.328.123.641.29.94.502.301.209.55.478.745.806.196.328.293.731.293 1.208 0 .55-.144 1.047-.432 1.491-.285.444-.703.797-1.253 1.059-.547.262-1.211.393-1.993.393-.73 0-1.361-.118-1.895-.353-.53-.235-.948-.563-1.253-.984a2.809 2.809 0 0 1-.511-1.467h1.272c.033.384.163.703.388.955.229.248.517.434.865.556.351.12.73.179 1.134.179.47 0 .893-.076 1.267-.228a2.18 2.18 0 0 0 .89-.647 1.53 1.53 0 0 0 .328-.974c0-.338-.094-.613-.283-.825a2.074 2.074 0 0 0-.746-.517 7.702 7.702 0 0 0-1-.348l-1.252-.358c-.795-.229-1.425-.556-1.89-.98-.463-.424-.695-.979-.695-1.665 0-.57.154-1.068.462-1.492.312-.427.73-.759 1.253-.994a4.225 4.225 0 0 1 1.765-.358c.656 0 1.24.118 1.75.353.51.232.915.55 1.213.955.302.404.46.863.477 1.377h-1.193Z"/>
</svg>
