<svg xmlns="http://www.w3.org/2000/svg" version="1.1" xmlns:xlink="http://www.w3.org/1999/xlink" xmlns:svgjs="http://svgjs.dev/svgjs" width="1000" height="1000"><style>
    #light-icon {
      display: inline;
    }
    #dark-icon {
      display: none;
    }

    @media (prefers-color-scheme: dark) {
      #light-icon {
        display: none;
      }
      #dark-icon {
        display: inline;
      }
    }
  </style><g id="light-icon"><svg xmlns="http://www.w3.org/2000/svg" version="1.1" xmlns:xlink="http://www.w3.org/1999/xlink" xmlns:svgjs="http://svgjs.dev/svgjs" width="1000" height="1000"><g clip-path="url(#SvgjsClipPath1111)"><rect width="1000" height="1000" fill="#004687"></rect><g transform="matrix(4.794520547945205,0,0,4.794520547945205,150,173.97260273972603)"><svg xmlns="http://www.w3.org/2000/svg" version="1.1" xmlns:xlink="http://www.w3.org/1999/xlink" xmlns:svgjs="http://svgjs.dev/svgjs" width="146" height="136"><svg xmlns="http://www.w3.org/2000/svg" width="146" height="136" viewBox="0 0 146 136">
  <defs>
    <linearGradient id="a" x1="0" x2="300" y1="0" y2="300" gradientTransform="translate(-77 -47)" gradientUnits="userSpaceOnUse">
      <stop offset="0%" stop-color="#0f172a"></stop>
      <stop offset="100%" stop-color="#1e293b"></stop>
    </linearGradient>
  <clipPath id="SvgjsClipPath1111"><rect width="1000" height="1000" x="0" y="0" rx="200" ry="200"></rect></clipPath></defs>
  <g fill="none" stroke="#fff" stroke-linecap="round" stroke-width="16">
    <path stroke-linejoin="round" d="M8 8h40c5 0 10 5 10 10v30c0 10 5 15 15 20-10 5-15 10-15 20v30c0 5-5 10-10 10H8"></path>
    <path d="m98 68 30-45M98 68l40 45"></path>
  </g>
</svg></svg></g></g></svg></g><g id="dark-icon"><svg xmlns="http://www.w3.org/2000/svg" version="1.1" xmlns:xlink="http://www.w3.org/1999/xlink" xmlns:svgjs="http://svgjs.dev/svgjs" width="1000" height="1000"><g><g transform="matrix(6.8493150684931505,0,0,6.8493150684931505,0,34.246575342465746)"><svg xmlns="http://www.w3.org/2000/svg" version="1.1" xmlns:xlink="http://www.w3.org/1999/xlink" xmlns:svgjs="http://svgjs.dev/svgjs" width="146" height="136"><svg xmlns="http://www.w3.org/2000/svg" width="146" height="136" viewBox="0 0 146 136">
  <defs>
    <linearGradient id="a" x1="0" x2="300" y1="0" y2="300" gradientTransform="translate(-77 -47)" gradientUnits="userSpaceOnUse">
      <stop offset="0%" stop-color="#0f172a"></stop>
      <stop offset="100%" stop-color="#1e293b"></stop>
    </linearGradient>
  </defs>
  <g fill="none" stroke="#fff" stroke-linecap="round" stroke-width="16">
    <path stroke-linejoin="round" d="M8 8h40c5 0 10 5 10 10v30c0 10 5 15 15 20-10 5-15 10-15 20v30c0 5-5 10-10 10H8"></path>
    <path d="m98 68 30-45M98 68l40 45"></path>
  </g>
</svg></svg></g></g></svg></g></svg>